0
SECTION
2
HEADER
9
$INSUNITS
70
1
0
ENDSEC
0
SECTION
2
ENTITIES
0
LWPOLYLINE
8
0
90
8
70
1
10
0.25
20
0
10
5.75
20
0
42
0.41421356237309503
10
6
20
0.25
10
6
20
2.75
42
0.41421356237309503
10
5.75
20
3
10
0.25
20
3
42
0.41421356237309503
10
0
20
2.75
10
0
20
0.25
42
0.41421356237309503
0
CIRCLE
8
0
10
3
20
1.5
40
0.5625
0
CIRCLE
8
0
10
0.375
20
0.375
40
0.0795
0
CIRCLE
8
0
10
5.625
20
0.375
40
0.0795
0
CIRCLE
8
0
10
0.375
20
2.625
40
0.0795
0
CIRCLE
8
0
10
5.625
20
2.625
40
0.0795
0
CIRCLE
8
0
10
1.5
20
1.5
40
0.098
0
CIRCLE
8
0
10
4.5
20
1.5
40
0.098
0
LWPOLYLINE
8
0
90
8
70
1
10
0.875
20
0.75
10
1.625
20
0.75
42
0.41421356237309503
10
1.75
20
0.875
10
1.75
20
1.125
42
0.41421356237309503
10
1.625
20
1.25
10
0.875
20
1.25
42
0.41421356237309503
10
0.75
20
1.125
10
0.75
20
0.875
42
0.41421356237309503
0
LWPOLYLINE
8
0
90
8
70
1
10
4.375
20
0.75
10
5.125
20
0.75
42
0.41421356237309503
10
5.25
20
0.875
10
5.25
20
1.125
42
0.41421356237309503
10
5.125
20
1.25
10
4.375
20
1.25
42
0.41421356237309503
10
4.25
20
1.125
10
4.25
20
0.875
42
0.41421356237309503
0
ENDSEC
0
EOF